<?xml version="1.0" standalone="no"?>
<!DOCTYPE svg PUBLIC "-//W3C//DTD SVG 20010904//EN"
 "http://www.w3.org/TR/2001/REC-SVG-20010904/DTD/svg10.dtd">
<svg version="1.0" xmlns="http://www.w3.org/2000/svg"
 width="49.000000pt" height="70.000000pt" viewBox="0 0 49.000000 70.000000"
 preserveAspectRatio="xMidYMid meet">
<metadata>
Created by potrace 1.15, written by Peter Selinger 2001-2017
</metadata>
<g transform="translate(0.000000,70.000000) scale(0.100000,-0.100000)"
fill="#000000" stroke="none">
<path d="M171 659 c-17 -22 -56 -84 -87 -137 -31 -54 -63 -104 -70 -112 -9
-10 -10 -20 -4 -30 5 -8 10 -27 10 -42 0 -42 17 -42 39 0 10 21 48 86 83 144
l64 107 33 -112 c18 -62 46 -159 64 -217 17 -58 31 -119 31 -137 0 -18 2 -31
4 -28 2 2 18 -12 34 -31 32 -37 76 -64 102 -64 12 0 15 10 14 40 -1 22 -4 38
-6 35 -7 -7 -42 91 -49 135 -3 19 -9 43 -14 53 -6 9 -38 105 -74 213 -35 107
-69 201 -75 209 -7 8 -25 15 -41 15 -22 0 -36 -9 -58 -41z"/>
</g>
</svg>
